<svg width="24" height="24" viewBox="0 0 24 24" xmlns="http://www.w3.org/2000/svg">
    <path d="M12 4c-4.412 0-8 3.588-8 8s3.588 8 8 8 8-3.588 8-8-3.588-8-8-8zm0 14.222A6.23 6.23 0 015.778 12 6.23 6.23 0 0112 5.778 6.23 6.23 0 0118.222 12 6.23 6.23 0 0112 18.222zm.889-6.59V8.448c0-.489-.4-.889-.889-.889s-.889.4-.889.89v3.555c0 .248.103.471.268.633l2.195 2.194a.891.891 0 001.257 0 .891.891 0 000-1.256l-1.942-1.943z"
          fill="currentColor" fill-rule="evenodd"></path>
    <g fill="#ccc">
        <path d="M6.978 19.477c0 1.371 1.645 2.042 2.577 1.05L21.558 7.723C22.518 6.695 21.803 5 20.409 5H3.496C2.178 5 1.505 6.607 2.418 7.572l4.56 4.828v7.077zm1.993-1.265v-6.627L3.856 6.169c.303.322.078.857-.36.857h15.963L8.971 18.212z"></path>
        <path d="M8.416 12.902l4.01-1.95a1.04 1.04 0 00.474-1.365.982.982 0 00-1.324-.489l-4.01 1.95c-.497.242-.71.853-.475 1.364a.982.982 0 001.325.49z"></path>
    </g>
</svg>